<?xml version="1.0" encoding="utf-8" standalone="no"?>
<!DOCTYPE svg PUBLIC "-//W3C//DTD SVG 1.1//EN"
  "http://www.w3.org/Graphics/SVG/1.1/DTD/svg11.dtd">
<svg xmlns:xlink="http://www.w3.org/1999/xlink" width="540pt" height="201.6pt" viewBox="0 0 540 201.6" xmlns="http://www.w3.org/2000/svg" version="1.1">
 <metadata>
  <rdf:RDF xmlns:dc="http://purl.org/dc/elements/1.1/" xmlns:cc="http://creativecommons.org/ns#" xmlns:rdf="http://www.w3.org/1999/02/22-rdf-syntax-ns#">
   <cc:Work>
    <dc:type rdf:resource="http://purl.org/dc/dcmitype/StillImage"/>
    <dc:format>image/svg+xml</dc:format>
    <dc:creator>
     <cc:Agent>
      <dc:title>Matplotlib v3.11.2, https://matplotlib.org/</dc:title>
     </cc:Agent>
    </dc:creator>
   </cc:Work>
  </rdf:RDF>
 </metadata>
 <defs>
  <style type="text/css">*{stroke-linejoin: round; stroke-linecap: butt}</style>
 </defs>
 <g id="figure_1">
  <g id="patch_1">
   <path d="M 0 201.6 
L 540 201.6 
L 540 0 
L 0 0 
z
" style="fill: #ffffff"/>
  </g>
  <g id="axes_1">
   <g id="patch_2">
    <path d="M 35.45 162.88 
L 530.28 162.88 
L 530.28 9.72 
L 35.45 9.72 
z
" style="fill: #ffffff"/>
   </g>
   <g id="matplotlib.axis_1">
    <g id="xtick_1">
     <g id="line2d_1">
      <path d="M 50.31 162.88 
L 50.31 9.72 
" clip-path="url(#p5de9d8e7cf)" style="fill: none; stroke: #b0b0b0; stroke-opacity: 0.3; stroke-width: 0.8; stroke-linecap: square"/>
     </g>
     <g id="line2d_2">
      <defs>
       <path id="m4735fb4fdf" d="M 0 0 
L 0 3.5 
" style="stroke: #000000; stroke-width: 0.8"/>
      </defs>
      <g>
       <use xlink:href="#m4735fb4fdf" x="50.31" y="162.88" style="stroke: #000000; stroke-width: 0.8"/>
      </g>
     </g>
     <g id="text_1">
      <text style="font-size: 9px; font-family: 'DejaVu Sans'; text-anchor: middle" x="50.31" y="176.72" transform="rotate(-0 50.31 176.72)">0</text>
     </g>
    </g>
    <g id="xtick_2">
     <g id="line2d_3">
      <path d="M 126.56 162.88 
L 126.56 9.72 
" clip-path="url(#p5de9d8e7cf)" style="fill: none; stroke: #b0b0b0; stroke-opacity: 0.3; stroke-width: 0.8; stroke-linecap: square"/>
     </g>
     <g id="line2d_4">
      <g>
       <use xlink:href="#m4735fb4fdf" x="126.56" y="162.88" style="stroke: #000000; stroke-width: 0.8"/>
      </g>
     </g>
     <g id="text_2">
      <text style="font-size: 9px; font-family: 'DejaVu Sans'; text-anchor: middle" x="126.56" y="176.72" transform="rotate(-0 126.56 176.72)">10</text>
     </g>
    </g>
    <g id="xtick_3">
     <g id="line2d_5">
      <path d="M 202.81 162.88 
L 202.81 9.72 
" clip-path="url(#p5de9d8e7cf)" style="fill: none; stroke: #b0b0b0; stroke-opacity: 0.3; stroke-width: 0.8; stroke-linecap: square"/>
     </g>
     <g id="line2d_6">
      <g>
       <use xlink:href="#m4735fb4fdf" x="202.81" y="162.88" style="stroke: #000000; stroke-width: 0.8"/>
      </g>
     </g>
     <g id="text_3">
      <text style="font-size: 9px; font-family: 'DejaVu Sans'; text-anchor: middle" x="202.81" y="176.72" transform="rotate(-0 202.81 176.72)">20</text>
     </g>
    </g>
    <g id="xtick_4">
     <g id="line2d_7">
      <path d="M 279.05 162.88 
L 279.05 9.72 
" clip-path="url(#p5de9d8e7cf)" style="fill: none; stroke: #b0b0b0; stroke-opacity: 0.3; stroke-width: 0.8; stroke-linecap: square"/>
     </g>
     <g id="line2d_8">
      <g>
       <use xlink:href="#m4735fb4fdf" x="279.05" y="162.88" style="stroke: #000000; stroke-width: 0.8"/>
      </g>
     </g>
     <g id="text_4">
      <text style="font-size: 9px; font-family: 'DejaVu Sans'; text-anchor: middle" x="279.05" y="176.72" transform="rotate(-0 279.05 176.72)">30</text>
     </g>
    </g>
    <g id="xtick_5">
     <g id="line2d_9">
      <path d="M 355.3 162.88 
L 355.3 9.72 
" clip-path="url(#p5de9d8e7cf)" style="fill: none; stroke: #b0b0b0; stroke-opacity: 0.3; stroke-width: 0.8; stroke-linecap: square"/>
     </g>
     <g id="line2d_10">
      <g>
       <use xlink:href="#m4735fb4fdf" x="355.3" y="162.88" style="stroke: #000000; stroke-width: 0.8"/>
      </g>
     </g>
     <g id="text_5">
      <text style="font-size: 9px; font-family: 'DejaVu Sans'; text-anchor: middle" x="355.3" y="176.72" transform="rotate(-0 355.3 176.72)">40</text>
     </g>
    </g>
    <g id="xtick_6">
     <g id="line2d_11">
      <path d="M 431.54 162.88 
L 431.54 9.72 
" clip-path="url(#p5de9d8e7cf)" style="fill: none; stroke: #b0b0b0; stroke-opacity: 0.3; stroke-width: 0.8; stroke-linecap: square"/>
     </g>
     <g id="line2d_12">
      <g>
       <use xlink:href="#m4735fb4fdf" x="431.54" y="162.88" style="stroke: #000000; stroke-width: 0.8"/>
      </g>
     </g>
     <g id="text_6">
      <text style="font-size: 9px; font-family: 'DejaVu Sans'; text-anchor: middle" x="431.54" y="176.72" transform="rotate(-0 431.54 176.72)">50</text>
     </g>
    </g>
    <g id="xtick_7">
     <g id="line2d_13">
      <path d="M 507.79 162.88 
L 507.79 9.72 
" clip-path="url(#p5de9d8e7cf)" style="fill: none; stroke: #b0b0b0; stroke-opacity: 0.3; stroke-width: 0.8; stroke-linecap: square"/>
     </g>
     <g id="line2d_14">
      <g>
       <use xlink:href="#m4735fb4fdf" x="507.79" y="162.88" style="stroke: #000000; stroke-width: 0.8"/>
      </g>
     </g>
     <g id="text_7">
      <text style="font-size: 9px; font-family: 'DejaVu Sans'; text-anchor: middle" x="507.79" y="176.72" transform="rotate(-0 507.79 176.72)">60</text>
     </g>
    </g>
    <g id="text_8">
     <text style="font-size: 9px; font-family: 'DejaVu Sans'; text-anchor: middle" x="282.86" y="189.72" transform="rotate(-0 282.86 189.72)">flushes after the frees</text>
    </g>
   </g>
   <g id="matplotlib.axis_2">
    <g id="ytick_1">
     <g id="line2d_15">
      <path d="M 35.45 162.88 
L 530.28 162.88 
" clip-path="url(#p5de9d8e7cf)" style="fill: none; stroke: #b0b0b0; stroke-opacity: 0.3; stroke-width: 0.8; stroke-linecap: square"/>
     </g>
     <g id="line2d_16">
      <defs>
       <path id="m4127d77f11" d="M 0 0 
L -3.5 0 
" style="stroke: #000000; stroke-width: 0.8"/>
      </defs>
      <g>
       <use xlink:href="#m4127d77f11" x="35.45" y="162.88" style="stroke: #000000; stroke-width: 0.8"/>
      </g>
     </g>
     <g id="text_9">
      <text style="font-size: 9px; font-family: 'DejaVu Sans'; text-anchor: end" x="28.45" y="166.3" transform="rotate(-0 28.45 166.3)">0</text>
     </g>
    </g>
    <g id="ytick_2">
     <g id="line2d_17">
      <path d="M 35.45 128.32 
L 530.28 128.32 
" clip-path="url(#p5de9d8e7cf)" style="fill: none; stroke: #b0b0b0; stroke-opacity: 0.3; stroke-width: 0.8; stroke-linecap: square"/>
     </g>
     <g id="line2d_18">
      <g>
       <use xlink:href="#m4127d77f11" x="35.45" y="128.32" style="stroke: #000000; stroke-width: 0.8"/>
      </g>
     </g>
     <g id="text_10">
      <text style="font-size: 9px; font-family: 'DejaVu Sans'; text-anchor: end" x="28.45" y="131.74" transform="rotate(-0 28.45 131.74)">1</text>
     </g>
    </g>
    <g id="ytick_3">
     <g id="line2d_19">
      <path d="M 35.45 93.76 
L 530.28 93.76 
" clip-path="url(#p5de9d8e7cf)" style="fill: none; stroke: #b0b0b0; stroke-opacity: 0.3; stroke-width: 0.8; stroke-linecap: square"/>
     </g>
     <g id="line2d_20">
      <g>
       <use xlink:href="#m4127d77f11" x="35.45" y="93.76" style="stroke: #000000; stroke-width: 0.8"/>
      </g>
     </g>
     <g id="text_11">
      <text style="font-size: 9px; font-family: 'DejaVu Sans'; text-anchor: end" x="28.45" y="97.18" transform="rotate(-0 28.45 97.18)">2</text>
     </g>
    </g>
    <g id="ytick_4">
     <g id="line2d_21">
      <path d="M 35.45 59.2 
L 530.28 59.2 
" clip-path="url(#p5de9d8e7cf)" style="fill: none; stroke: #b0b0b0; stroke-opacity: 0.3; stroke-width: 0.8; stroke-linecap: square"/>
     </g>
     <g id="line2d_22">
      <g>
       <use xlink:href="#m4127d77f11" x="35.45" y="59.2" style="stroke: #000000; stroke-width: 0.8"/>
      </g>
     </g>
     <g id="text_12">
      <text style="font-size: 9px; font-family: 'DejaVu Sans'; text-anchor: end" x="28.45" y="62.62" transform="rotate(-0 28.45 62.62)">3</text>
     </g>
    </g>
    <g id="ytick_5">
     <g id="line2d_23">
      <path d="M 35.45 24.64 
L 530.28 24.64 
" clip-path="url(#p5de9d8e7cf)" style="fill: none; stroke: #b0b0b0; stroke-opacity: 0.3; stroke-width: 0.8; stroke-linecap: square"/>
     </g>
     <g id="line2d_24">
      <g>
       <use xlink:href="#m4127d77f11" x="35.45" y="24.64" style="stroke: #000000; stroke-width: 0.8"/>
      </g>
     </g>
     <g id="text_13">
      <text style="font-size: 9px; font-family: 'DejaVu Sans'; text-anchor: end" x="28.45" y="28.06" transform="rotate(-0 28.45 28.06)">4</text>
     </g>
    </g>
    <g id="text_14">
     <text style="font-size: 9px; font-family: 'DejaVu Sans'; text-anchor: middle" x="16.56" y="86.3" transform="rotate(-90 16.56 86.3)">file size / live size</text>
    </g>
   </g>
   <g id="line2d_25">
    <path d="M 57.94 15.2 
L 65.56 15.2 
L 73.19 15.2 
L 80.81 15.2 
L 88.44 15.2 
L 96.06 15.2 
L 103.69 15.2 
L 111.31 15.2 
L 118.94 15.2 
L 126.56 15.2 
L 134.18 15.2 
L 141.81 15.2 
L 149.43 15.2 
L 157.06 15.2 
L 164.68 15.2 
L 172.31 15.2 
L 179.93 15.2 
L 187.56 15.2 
L 195.18 15.2 
L 202.81 15.2 
L 210.43 15.2 
L 218.05 15.2 
L 225.68 15.2 
L 233.3 15.2 
L 240.93 15.2 
L 248.55 15.2 
L 256.18 15.2 
L 263.8 15.2 
L 271.43 15.2 
L 279.05 15.2 
L 286.68 15.2 
L 294.3 15.2 
L 301.92 15.2 
L 309.55 15.2 
L 317.17 15.2 
L 324.8 15.2 
L 332.42 15.2 
L 340.05 15.2 
L 347.67 15.2 
L 355.3 15.2 
L 362.92 15.2 
L 370.55 15.2 
L 378.17 15.2 
L 385.79 15.2 
L 393.42 15.2 
L 401.04 15.2 
L 408.67 15.2 
L 416.29 15.2 
L 423.92 15.2 
L 431.54 15.2 
L 439.17 15.2 
L 446.79 15.2 
L 454.42 15.2 
L 462.04 15.2 
L 469.66 15.2 
L 477.29 15.2 
L 484.91 15.2 
L 492.54 15.2 
L 500.16 15.2 
L 507.79 15.2 
" clip-path="url(#p5de9d8e7cf)" style="fill: none; stroke-dasharray: 7,4.2; stroke-dashoffset: 0; stroke: #4c72b0; stroke-width: 1.4"/>
   </g>
   <g id="line2d_26">
    <path d="M 57.94 15.15 
L 65.56 15.14 
L 73.19 15.14 
L 80.81 15.14 
L 88.44 15.14 
L 96.06 15.14 
L 103.69 15.14 
L 111.31 15.14 
L 118.94 15.14 
L 126.56 15.14 
L 134.18 15.14 
L 141.81 15.14 
L 149.43 15.14 
L 157.06 15.14 
L 164.68 15.14 
L 172.31 15.14 
L 179.93 15.14 
L 187.56 15.14 
L 195.18 15.14 
L 202.81 15.14 
L 210.43 15.14 
L 218.05 15.14 
L 225.68 15.14 
L 233.3 15.14 
L 240.93 15.14 
L 248.55 15.14 
L 256.18 15.14 
L 263.8 15.14 
L 271.43 15.14 
L 279.05 15.14 
L 286.68 15.14 
L 294.3 15.14 
L 301.92 15.14 
L 309.55 15.14 
L 317.17 15.14 
L 324.8 15.14 
L 332.42 15.14 
L 340.05 15.14 
L 347.67 15.14 
L 355.3 15.14 
L 362.92 15.14 
L 370.55 15.14 
L 378.17 15.14 
L 385.79 15.14 
L 393.42 15.14 
L 401.04 15.14 
L 408.67 15.14 
L 416.29 15.14 
L 423.92 15.14 
L 431.54 15.14 
L 439.17 15.14 
L 446.79 15.14 
L 454.42 15.14 
L 462.04 15.14 
L 469.66 15.14 
L 477.29 15.14 
L 484.91 15.14 
L 492.54 15.14 
L 500.16 15.14 
L 507.79 15.14 
" clip-path="url(#p5de9d8e7cf)" style="fill: none; stroke-dasharray: 1.4,2.8; stroke-dashoffset: 0; stroke: #dd8452; stroke-width: 1.4"/>
   </g>
   <g id="line2d_27">
    <path d="M 57.94 15.2 
L 65.56 15.2 
L 73.19 15.2 
L 80.81 21.56 
L 88.44 31.48 
L 96.06 38.42 
L 103.69 51.93 
L 111.31 65.72 
L 118.94 75.51 
L 126.56 82.48 
L 134.18 88.73 
L 141.81 96.83 
L 149.43 107.33 
L 157.06 114.86 
L 164.68 114.86 
L 172.31 123.53 
L 179.93 123.53 
L 187.56 123.53 
L 195.18 123.53 
L 202.81 123.53 
L 210.43 123.53 
L 218.05 123.53 
L 225.68 123.53 
L 233.3 123.53 
L 240.93 123.53 
L 248.55 123.53 
L 256.18 123.53 
L 263.8 123.53 
L 271.43 123.53 
L 279.05 123.53 
L 286.68 123.53 
L 294.3 123.53 
L 301.92 123.53 
L 309.55 123.53 
L 317.17 123.53 
L 324.8 123.53 
L 332.42 123.53 
L 340.05 123.53 
L 347.67 123.53 
L 355.3 123.53 
L 362.92 123.53 
L 370.55 123.53 
L 378.17 123.53 
L 385.79 123.53 
L 393.42 123.53 
L 401.04 123.53 
L 408.67 123.53 
L 416.29 123.53 
L 423.92 123.53 
L 431.54 123.53 
L 439.17 123.53 
L 446.79 123.53 
L 454.42 123.53 
L 462.04 123.53 
L 469.66 123.53 
L 477.29 123.53 
L 484.91 123.53 
L 492.54 123.53 
L 500.16 123.53 
L 507.79 123.53 
" clip-path="url(#p5de9d8e7cf)" style="fill: none; stroke: #55a868; stroke-width: 1.4; stroke-linecap: square"/>
   </g>
   <g id="patch_3">
    <path d="M 35.45 162.88 
L 35.45 9.72 
" style="fill: none; stroke: #000000; stroke-width: 0.8; stroke-linejoin: miter; stroke-linecap: square"/>
   </g>
   <g id="patch_4">
    <path d="M 35.45 162.88 
L 530.28 162.88 
" style="fill: none; stroke: #000000; stroke-width: 0.8; stroke-linejoin: miter; stroke-linecap: square"/>
   </g>
   <g id="legend_1">
    <g id="line2d_28">
     <path d="M 41.75 131.45 
L 48.75 131.45 
L 55.75 131.45 
" style="fill: none; stroke-dasharray: 7,4.2; stroke-dashoffset: 0; stroke: #4c72b0; stroke-width: 1.4"/>
    </g>
    <g id="text_15">
     <text style="font-size: 7px; font-family: 'DejaVu Sans'; text-anchor: start" x="61.35" y="133.9" transform="rotate(-0 61.35 133.9)">consolidation without compaction mode</text>
    </g>
    <g id="line2d_29">
     <path d="M 41.75 141.95 
L 48.75 141.95 
L 55.75 141.95 
" style="fill: none; stroke-dasharray: 1.4,2.8; stroke-dashoffset: 0; stroke: #dd8452; stroke-width: 1.4"/>
    </g>
    <g id="text_16">
     <text style="font-size: 7px; font-family: 'DejaVu Sans'; text-anchor: start" x="61.35" y="144.4" transform="rotate(-0 61.35 144.4)">no consolidation</text>
    </g>
    <g id="line2d_30">
     <path d="M 41.75 152.45 
L 48.75 152.45 
L 55.75 152.45 
" style="fill: none; stroke: #55a868; stroke-width: 1.4; stroke-linecap: square"/>
    </g>
    <g id="text_17">
     <text style="font-size: 7px; font-family: 'DejaVu Sans'; text-anchor: start" x="61.35" y="154.9" transform="rotate(-0 61.35 154.9)">compaction mode</text>
    </g>
   </g>
  </g>
 </g>
 <defs>
  <clipPath id="p5de9d8e7cf">
   <rect x="35.45" y="9.72" width="494.83" height="153.16"/>
  </clipPath>
 </defs>
</svg>
