<?xml version="1.0" encoding="utf-8" standalone="no"?>
<!DOCTYPE svg PUBLIC "-//W3C//DTD SVG 1.1//EN"
  "http://www.w3.org/Graphics/SVG/1.1/DTD/svg11.dtd">
<svg xmlns:xlink="http://www.w3.org/1999/xlink" width="540pt" height="244.8pt" viewBox="0 0 540 244.8" xmlns="http://www.w3.org/2000/svg" version="1.1">
 <metadata>
  <rdf:RDF xmlns:dc="http://purl.org/dc/elements/1.1/" xmlns:cc="http://creativecommons.org/ns#" xmlns:rdf="http://www.w3.org/1999/02/22-rdf-syntax-ns#">
   <cc:Work>
    <dc:type rdf:resource="http://purl.org/dc/dcmitype/StillImage"/>
    <dc:format>image/svg+xml</dc:format>
    <dc:creator>
     <cc:Agent>
      <dc:title>Matplotlib v3.11.2, https://matplotlib.org/</dc:title>
     </cc:Agent>
    </dc:creator>
   </cc:Work>
  </rdf:RDF>
 </metadata>
 <defs>
  <style type="text/css">*{stroke-linejoin: round; stroke-linecap: butt}</style>
 </defs>
 <g id="figure_1">
  <g id="patch_1">
   <path d="M 0 244.8 
L 540 244.8 
L 540 0 
L 0 0 
z
" style="fill: #ffffff"/>
  </g>
  <g id="axes_1">
   <g id="patch_2">
    <path d="M 56.64 211.28 
L 530.28 211.28 
L 530.28 36.32 
L 56.64 36.32 
z
" style="fill: #ffffff"/>
   </g>
   <g id="patch_3">
    <path d="M 78.17 211.28 
L 123.15 211.28 
L 123.15 156.47 
L 78.17 156.47 
z
" clip-path="url(#p29edb1785f)" style="fill: #8c8c8c"/>
   </g>
   <g id="patch_4">
    <path d="M 142.43 211.28 
L 187.42 211.28 
L 187.42 156.42 
L 142.43 156.42 
z
" clip-path="url(#p29edb1785f)" style="fill: #8c8c8c"/>
   </g>
   <g id="patch_5">
    <path d="M 206.7 211.28 
L 251.69 211.28 
L 251.69 156.6 
L 206.7 156.6 
z
" clip-path="url(#p29edb1785f)" style="fill: #8c8c8c"/>
   </g>
   <g id="patch_6">
    <path d="M 270.97 211.28 
L 315.95 211.28 
L 315.95 156.47 
L 270.97 156.47 
z
" clip-path="url(#p29edb1785f)" style="fill: #8c8c8c"/>
   </g>
   <g id="patch_7">
    <path d="M 335.23 211.28 
L 380.22 211.28 
L 380.22 153.84 
L 335.23 153.84 
z
" clip-path="url(#p29edb1785f)" style="fill: #8c8c8c"/>
   </g>
   <g id="patch_8">
    <path d="M 399.5 211.28 
L 444.48 211.28 
L 444.48 157.67 
L 399.5 157.67 
z
" clip-path="url(#p29edb1785f)" style="fill: #8c8c8c"/>
   </g>
   <g id="patch_9">
    <path d="M 463.76 211.28 
L 508.75 211.28 
L 508.75 152.7 
L 463.76 152.7 
z
" clip-path="url(#p29edb1785f)" style="fill: #8c8c8c"/>
   </g>
   <g id="patch_10">
    <path d="M 78.17 156.47 
L 123.15 156.47 
L 123.15 104.96 
L 78.17 104.96 
z
" clip-path="url(#p29edb1785f)" style="fill: #4c72b0"/>
   </g>
   <g id="patch_11">
    <path d="M 142.43 156.42 
L 187.42 156.42 
L 187.42 104.21 
L 142.43 104.21 
z
" clip-path="url(#p29edb1785f)" style="fill: #4c72b0"/>
   </g>
   <g id="patch_12">
    <path d="M 206.7 156.6 
L 251.69 156.6 
L 251.69 110.44 
L 206.7 110.44 
z
" clip-path="url(#p29edb1785f)" style="fill: #4c72b0"/>
   </g>
   <g id="patch_13">
    <path d="M 270.97 156.47 
L 315.95 156.47 
L 315.95 104.99 
L 270.97 104.99 
z
" clip-path="url(#p29edb1785f)" style="fill: #4c72b0"/>
   </g>
   <g id="patch_14">
    <path d="M 335.23 153.84 
L 380.22 153.84 
L 380.22 101.62 
L 335.23 101.62 
z
" clip-path="url(#p29edb1785f)" style="fill: #4c72b0"/>
   </g>
   <g id="patch_15">
    <path d="M 399.5 157.67 
L 444.48 157.67 
L 444.48 106.5 
L 399.5 106.5 
z
" clip-path="url(#p29edb1785f)" style="fill: #4c72b0"/>
   </g>
   <g id="patch_16">
    <path d="M 463.76 152.7 
L 508.75 152.7 
L 508.75 99.75 
L 463.76 99.75 
z
" clip-path="url(#p29edb1785f)" style="fill: #4c72b0"/>
   </g>
   <g id="patch_17">
    <path d="M 78.17 104.96 
L 123.15 104.96 
L 123.15 59.69 
L 78.17 59.69 
z
" clip-path="url(#p29edb1785f)" style="fill: #dd8452"/>
   </g>
   <g id="patch_18">
    <path d="M 142.43 104.21 
L 187.42 104.21 
L 187.42 56.75 
L 142.43 56.75 
z
" clip-path="url(#p29edb1785f)" style="fill: #dd8452"/>
   </g>
   <g id="patch_19">
    <path d="M 206.7 110.44 
L 251.69 110.44 
L 251.69 79.14 
L 206.7 79.14 
z
" clip-path="url(#p29edb1785f)" style="fill: #dd8452"/>
   </g>
   <g id="patch_20">
    <path d="M 270.97 104.99 
L 315.95 104.99 
L 315.95 62.11 
L 270.97 62.11 
z
" clip-path="url(#p29edb1785f)" style="fill: #dd8452"/>
   </g>
   <g id="patch_21">
    <path d="M 335.23 101.62 
L 380.22 101.62 
L 380.22 66.16 
L 335.23 66.16 
z
" clip-path="url(#p29edb1785f)" style="fill: #dd8452"/>
   </g>
   <g id="patch_22">
    <path d="M 399.5 106.5 
L 444.48 106.5 
L 444.48 101.43 
L 399.5 101.43 
z
" clip-path="url(#p29edb1785f)" style="fill: #dd8452"/>
   </g>
   <g id="patch_23">
    <path d="M 463.76 99.75 
L 508.75 99.75 
L 508.75 68.95 
L 463.76 68.95 
z
" clip-path="url(#p29edb1785f)" style="fill: #dd8452"/>
   </g>
   <g id="patch_24">
    <path d="M 78.17 59.69 
L 123.15 59.69 
L 123.15 59.16 
L 78.17 59.16 
z
" clip-path="url(#p29edb1785f)" style="fill: #dfc27d"/>
   </g>
   <g id="patch_25">
    <path d="M 142.43 56.75 
L 187.42 56.75 
L 187.42 55.93 
L 142.43 55.93 
z
" clip-path="url(#p29edb1785f)" style="fill: #dfc27d"/>
   </g>
   <g id="patch_26">
    <path d="M 206.7 79.14 
L 251.69 79.14 
L 251.69 78.73 
L 206.7 78.73 
z
" clip-path="url(#p29edb1785f)" style="fill: #dfc27d"/>
   </g>
   <g id="patch_27">
    <path d="M 270.97 62.11 
L 315.95 62.11 
L 315.95 61.44 
L 270.97 61.44 
z
" clip-path="url(#p29edb1785f)" style="fill: #dfc27d"/>
   </g>
   <g id="patch_28">
    <path d="M 335.23 66.16 
L 380.22 66.16 
L 380.22 65.39 
L 335.23 65.39 
z
" clip-path="url(#p29edb1785f)" style="fill: #dfc27d"/>
   </g>
   <g id="patch_29">
    <path d="M 399.5 101.43 
L 444.48 101.43 
L 444.48 101.43 
L 399.5 101.43 
z
" clip-path="url(#p29edb1785f)" style="fill: #dfc27d"/>
   </g>
   <g id="patch_30">
    <path d="M 463.76 68.95 
L 508.75 68.95 
L 508.75 68.95 
L 463.76 68.95 
z
" clip-path="url(#p29edb1785f)" style="fill: #dfc27d"/>
   </g>
   <g id="patch_31">
    <path d="M 78.17 59.16 
L 123.15 59.16 
L 123.15 51.49 
L 78.17 51.49 
z
" clip-path="url(#p29edb1785f)" style="fill: #55a868"/>
   </g>
   <g id="patch_32">
    <path d="M 142.43 55.93 
L 187.42 55.93 
L 187.42 45.49 
L 142.43 45.49 
z
" clip-path="url(#p29edb1785f)" style="fill: #55a868"/>
   </g>
   <g id="patch_33">
    <path d="M 206.7 78.73 
L 251.69 78.73 
L 251.69 73.26 
L 206.7 73.26 
z
" clip-path="url(#p29edb1785f)" style="fill: #55a868"/>
   </g>
   <g id="patch_34">
    <path d="M 270.97 61.44 
L 315.95 61.44 
L 315.95 52.68 
L 270.97 52.68 
z
" clip-path="url(#p29edb1785f)" style="fill: #55a868"/>
   </g>
   <g id="patch_35">
    <path d="M 335.23 65.39 
L 380.22 65.39 
L 380.22 59.51 
L 335.23 59.51 
z
" clip-path="url(#p29edb1785f)" style="fill: #55a868"/>
   </g>
   <g id="patch_36">
    <path d="M 399.5 101.43 
L 444.48 101.43 
L 444.48 98.19 
L 399.5 98.19 
z
" clip-path="url(#p29edb1785f)" style="fill: #55a868"/>
   </g>
   <g id="patch_37">
    <path d="M 463.76 68.95 
L 508.75 68.95 
L 508.75 57 
L 463.76 57 
z
" clip-path="url(#p29edb1785f)" style="fill: #55a868"/>
   </g>
   <g id="patch_38">
    <path d="M 78.17 51.49 
L 123.15 51.49 
L 123.15 50.66 
L 78.17 50.66 
z
" clip-path="url(#p29edb1785f)" style="fill: #c44e52"/>
   </g>
   <g id="patch_39">
    <path d="M 142.43 45.49 
L 187.42 45.49 
L 187.42 44.65 
L 142.43 44.65 
z
" clip-path="url(#p29edb1785f)" style="fill: #c44e52"/>
   </g>
   <g id="patch_40">
    <path d="M 206.7 73.26 
L 251.69 73.26 
L 251.69 72.42 
L 206.7 72.42 
z
" clip-path="url(#p29edb1785f)" style="fill: #c44e52"/>
   </g>
   <g id="patch_41">
    <path d="M 270.97 52.68 
L 315.95 52.68 
L 315.95 51.84 
L 270.97 51.84 
z
" clip-path="url(#p29edb1785f)" style="fill: #c44e52"/>
   </g>
   <g id="patch_42">
    <path d="M 335.23 59.51 
L 380.22 59.51 
L 380.22 57.83 
L 335.23 57.83 
z
" clip-path="url(#p29edb1785f)" style="fill: #c44e52"/>
   </g>
   <g id="patch_43">
    <path d="M 399.5 98.19 
L 444.48 98.19 
L 444.48 97.83 
L 399.5 97.83 
z
" clip-path="url(#p29edb1785f)" style="fill: #c44e52"/>
   </g>
   <g id="patch_44">
    <path d="M 463.76 57 
L 508.75 57 
L 508.75 55.78 
L 463.76 55.78 
z
" clip-path="url(#p29edb1785f)" style="fill: #c44e52"/>
   </g>
   <g id="matplotlib.axis_1">
    <g id="xtick_1">
     <g id="line2d_1">
      <path d="M 100.66 211.28 
L 100.66 36.32 
" clip-path="url(#p29edb1785f)" style="fill: none; stroke: #b0b0b0; stroke-opacity: 0.3; stroke-width: 0.8; stroke-linecap: square"/>
     </g>
     <g id="line2d_2">
      <defs>
       <path id="m4735fb4fdf" d="M 0 0 
L 0 3.5 
" style="stroke: #000000; stroke-width: 0.8"/>
      </defs>
      <g>
       <use xlink:href="#m4735fb4fdf" x="100.66" y="211.28" style="stroke: #000000; stroke-width: 0.8"/>
      </g>
     </g>
     <g id="text_1">
      <text style="font-size: 7px; font-family: 'DejaVu Sans'" transform="translate(87.09 224.3)">uniform</text>
      <text style="font-size: 7px; font-family: 'DejaVu Sans'" transform="translate(90.93 232.7)">8 MiB</text>
     </g>
    </g>
    <g id="xtick_2">
     <g id="line2d_3">
      <path d="M 164.93 211.28 
L 164.93 36.32 
" clip-path="url(#p29edb1785f)" style="fill: none; stroke: #b0b0b0; stroke-opacity: 0.3; stroke-width: 0.8; stroke-linecap: square"/>
     </g>
     <g id="line2d_4">
      <g>
       <use xlink:href="#m4735fb4fdf" x="164.93" y="211.28" style="stroke: #000000; stroke-width: 0.8"/>
      </g>
     </g>
     <g id="text_2">
      <text style="font-size: 7px; font-family: 'DejaVu Sans'" transform="translate(151.36 224.3)">uniform</text>
      <text style="font-size: 7px; font-family: 'DejaVu Sans'" transform="translate(152.97 232.7)">64 MiB</text>
     </g>
    </g>
    <g id="xtick_3">
     <g id="line2d_5">
      <path d="M 229.19 211.28 
L 229.19 36.32 
" clip-path="url(#p29edb1785f)" style="fill: none; stroke: #b0b0b0; stroke-opacity: 0.3; stroke-width: 0.8; stroke-linecap: square"/>
     </g>
     <g id="line2d_6">
      <g>
       <use xlink:href="#m4735fb4fdf" x="229.19" y="211.28" style="stroke: #000000; stroke-width: 0.8"/>
      </g>
     </g>
     <g id="text_3">
      <text style="font-size: 7px; font-family: 'DejaVu Sans'" transform="translate(216.08 224.3)">skewed</text>
      <text style="font-size: 7px; font-family: 'DejaVu Sans'" transform="translate(219.46 232.7)">8 MiB</text>
     </g>
    </g>
    <g id="xtick_4">
     <g id="line2d_7">
      <path d="M 293.46 211.28 
L 293.46 36.32 
" clip-path="url(#p29edb1785f)" style="fill: none; stroke: #b0b0b0; stroke-opacity: 0.3; stroke-width: 0.8; stroke-linecap: square"/>
     </g>
     <g id="line2d_8">
      <g>
       <use xlink:href="#m4735fb4fdf" x="293.46" y="211.28" style="stroke: #000000; stroke-width: 0.8"/>
      </g>
     </g>
     <g id="text_4">
      <text style="font-size: 7px; font-family: 'DejaVu Sans'" transform="translate(280.34 224.3)">skewed</text>
      <text style="font-size: 7px; font-family: 'DejaVu Sans'" transform="translate(281.5 232.7)">64 MiB</text>
     </g>
    </g>
    <g id="xtick_5">
     <g id="line2d_9">
      <path d="M 357.73 211.28 
L 357.73 36.32 
" clip-path="url(#p29edb1785f)" style="fill: none; stroke: #b0b0b0; stroke-opacity: 0.3; stroke-width: 0.8; stroke-linecap: square"/>
     </g>
     <g id="line2d_10">
      <g>
       <use xlink:href="#m4735fb4fdf" x="357.73" y="211.28" style="stroke: #000000; stroke-width: 0.8"/>
      </g>
     </g>
     <g id="text_5">
      <text style="font-size: 7px; font-family: 'DejaVu Sans'" transform="translate(344.54 224.3)">append</text>
      <text style="font-size: 7px; font-family: 'DejaVu Sans'" transform="translate(345.77 232.7)">16 MiB</text>
     </g>
    </g>
    <g id="xtick_6">
     <g id="line2d_11">
      <path d="M 421.99 211.28 
L 421.99 36.32 
" clip-path="url(#p29edb1785f)" style="fill: none; stroke: #b0b0b0; stroke-opacity: 0.3; stroke-width: 0.8; stroke-linecap: square"/>
     </g>
     <g id="line2d_12">
      <g>
       <use xlink:href="#m4735fb4fdf" x="421.99" y="211.28" style="stroke: #000000; stroke-width: 0.8"/>
      </g>
     </g>
     <g id="text_6">
      <text style="font-size: 7px; font-family: 'DejaVu Sans'" transform="translate(412.03 224.3)">churn</text>
      <text style="font-size: 7px; font-family: 'DejaVu Sans'" transform="translate(410.03 232.7)">16 MiB</text>
     </g>
    </g>
    <g id="xtick_7">
     <g id="line2d_13">
      <path d="M 486.26 211.28 
L 486.26 36.32 
" clip-path="url(#p29edb1785f)" style="fill: none; stroke: #b0b0b0; stroke-opacity: 0.3; stroke-width: 0.8; stroke-linecap: square"/>
     </g>
     <g id="line2d_14">
      <g>
       <use xlink:href="#m4735fb4fdf" x="486.26" y="211.28" style="stroke: #000000; stroke-width: 0.8"/>
      </g>
     </g>
     <g id="text_7">
      <text style="font-size: 7px; font-family: 'DejaVu Sans'" transform="translate(476.22 224.3)">typed</text>
      <text style="font-size: 7px; font-family: 'DejaVu Sans'" transform="translate(474.3 232.7)">16 MiB</text>
     </g>
    </g>
   </g>
   <g id="matplotlib.axis_2">
    <g id="ytick_1">
     <g id="line2d_15">
      <path d="M 56.64 211.28 
L 530.28 211.28 
" clip-path="url(#p29edb1785f)" style="fill: none; stroke: #b0b0b0; stroke-opacity: 0.3; stroke-width: 0.8; stroke-linecap: square"/>
     </g>
     <g id="line2d_16">
      <defs>
       <path id="m4127d77f11" d="M 0 0 
L -3.5 0 
" style="stroke: #000000; stroke-width: 0.8"/>
      </defs>
      <g>
       <use xlink:href="#m4127d77f11" x="56.64" y="211.28" style="stroke: #000000; stroke-width: 0.8"/>
      </g>
     </g>
     <g id="text_8">
      <text style="font-size: 9px; font-family: 'DejaVu Sans'; text-anchor: end" x="49.64" y="214.7" transform="rotate(-0 49.64 214.7)">0.0</text>
     </g>
    </g>
    <g id="ytick_2">
     <g id="line2d_17">
      <path d="M 56.64 185.12 
L 530.28 185.12 
" clip-path="url(#p29edb1785f)" style="fill: none; stroke: #b0b0b0; stroke-opacity: 0.3; stroke-width: 0.8; stroke-linecap: square"/>
     </g>
     <g id="line2d_18">
      <g>
       <use xlink:href="#m4127d77f11" x="56.64" y="185.12" style="stroke: #000000; stroke-width: 0.8"/>
      </g>
     </g>
     <g id="text_9">
      <text style="font-size: 9px; font-family: 'DejaVu Sans'; text-anchor: end" x="49.64" y="188.54" transform="rotate(-0 49.64 188.54)">0.5</text>
     </g>
    </g>
    <g id="ytick_3">
     <g id="line2d_19">
      <path d="M 56.64 158.97 
L 530.28 158.97 
" clip-path="url(#p29edb1785f)" style="fill: none; stroke: #b0b0b0; stroke-opacity: 0.3; stroke-width: 0.8; stroke-linecap: square"/>
     </g>
     <g id="line2d_20">
      <g>
       <use xlink:href="#m4127d77f11" x="56.64" y="158.97" style="stroke: #000000; stroke-width: 0.8"/>
      </g>
     </g>
     <g id="text_10">
      <text style="font-size: 9px; font-family: 'DejaVu Sans'; text-anchor: end" x="49.64" y="162.39" transform="rotate(-0 49.64 162.39)">1.0</text>
     </g>
    </g>
    <g id="ytick_4">
     <g id="line2d_21">
      <path d="M 56.64 132.81 
L 530.28 132.81 
" clip-path="url(#p29edb1785f)" style="fill: none; stroke: #b0b0b0; stroke-opacity: 0.3; stroke-width: 0.8; stroke-linecap: square"/>
     </g>
     <g id="line2d_22">
      <g>
       <use xlink:href="#m4127d77f11" x="56.64" y="132.81" style="stroke: #000000; stroke-width: 0.8"/>
      </g>
     </g>
     <g id="text_11">
      <text style="font-size: 9px; font-family: 'DejaVu Sans'; text-anchor: end" x="49.64" y="136.23" transform="rotate(-0 49.64 136.23)">1.5</text>
     </g>
    </g>
    <g id="ytick_5">
     <g id="line2d_23">
      <path d="M 56.64 106.66 
L 530.28 106.66 
" clip-path="url(#p29edb1785f)" style="fill: none; stroke: #b0b0b0; stroke-opacity: 0.3; stroke-width: 0.8; stroke-linecap: square"/>
     </g>
     <g id="line2d_24">
      <g>
       <use xlink:href="#m4127d77f11" x="56.64" y="106.66" style="stroke: #000000; stroke-width: 0.8"/>
      </g>
     </g>
     <g id="text_12">
      <text style="font-size: 9px; font-family: 'DejaVu Sans'; text-anchor: end" x="49.64" y="110.08" transform="rotate(-0 49.64 110.08)">2.0</text>
     </g>
    </g>
    <g id="ytick_6">
     <g id="line2d_25">
      <path d="M 56.64 80.5 
L 530.28 80.5 
" clip-path="url(#p29edb1785f)" style="fill: none; stroke: #b0b0b0; stroke-opacity: 0.3; stroke-width: 0.8; stroke-linecap: square"/>
     </g>
     <g id="line2d_26">
      <g>
       <use xlink:href="#m4127d77f11" x="56.64" y="80.5" style="stroke: #000000; stroke-width: 0.8"/>
      </g>
     </g>
     <g id="text_13">
      <text style="font-size: 9px; font-family: 'DejaVu Sans'; text-anchor: end" x="49.64" y="83.92" transform="rotate(-0 49.64 83.92)">2.5</text>
     </g>
    </g>
    <g id="ytick_7">
     <g id="line2d_27">
      <path d="M 56.64 54.35 
L 530.28 54.35 
" clip-path="url(#p29edb1785f)" style="fill: none; stroke: #b0b0b0; stroke-opacity: 0.3; stroke-width: 0.8; stroke-linecap: square"/>
     </g>
     <g id="line2d_28">
      <g>
       <use xlink:href="#m4127d77f11" x="56.64" y="54.35" style="stroke: #000000; stroke-width: 0.8"/>
      </g>
     </g>
     <g id="text_14">
      <text style="font-size: 9px; font-family: 'DejaVu Sans'; text-anchor: end" x="49.64" y="57.77" transform="rotate(-0 49.64 57.77)">3.0</text>
     </g>
    </g>
    <g id="text_15">
     <text style="font-size: 9px; font-family: 'DejaVu Sans'" transform="translate(17.46 176.6) rotate(-90)">bytes written to the file</text>
     <text style="font-size: 9px; font-family: 'DejaVu Sans'" transform="translate(28.26 191.97) rotate(-90)">per byte the application wrote</text>
    </g>
   </g>
   <g id="patch_45">
    <path d="M 56.64 211.28 
L 56.64 36.32 
" style="fill: none; stroke: #000000; stroke-width: 0.8; stroke-linejoin: miter; stroke-linecap: square"/>
   </g>
   <g id="patch_46">
    <path d="M 56.64 211.28 
L 530.28 211.28 
" style="fill: none; stroke: #000000; stroke-width: 0.8; stroke-linejoin: miter; stroke-linecap: square"/>
   </g>
   <g id="legend_1">
    <g id="patch_47">
     <path d="M 125.79 17.84 
L 139.79 17.84 
L 139.79 12.94 
L 125.79 12.94 
z
" style="fill: #8c8c8c"/>
    </g>
    <g id="text_16">
     <text style="font-size: 7px; font-family: 'DejaVu Sans'; text-anchor: start" x="145.39" y="17.84" transform="rotate(-0 145.39 17.84)">journal</text>
    </g>
    <g id="patch_48">
     <path d="M 125.79 28.34 
L 139.79 28.34 
L 139.79 23.44 
L 125.79 23.44 
z
" style="fill: #4c72b0"/>
    </g>
    <g id="text_17">
     <text style="font-size: 7px; font-family: 'DejaVu Sans'; text-anchor: start" x="145.39" y="28.34" transform="rotate(-0 145.39 28.34)">data pages: new content</text>
    </g>
    <g id="patch_49">
     <path d="M 246.58 17.84 
L 260.58 17.84 
L 260.58 12.94 
L 246.58 12.94 
z
" style="fill: #dd8452"/>
    </g>
    <g id="text_18">
     <text style="font-size: 7px; font-family: 'DejaVu Sans'; text-anchor: start" x="266.18" y="17.84" transform="rotate(-0 266.18 17.84)">data pages: consolidation</text>
    </g>
    <g id="patch_50">
     <path d="M 246.58 28.34 
L 260.58 28.34 
L 260.58 23.44 
L 246.58 23.44 
z
" style="fill: #dfc27d"/>
    </g>
    <g id="text_19">
     <text style="font-size: 7px; font-family: 'DejaVu Sans'; text-anchor: start" x="266.18" y="28.34" transform="rotate(-0 266.18 28.34)">data pages: slack</text>
    </g>
    <g id="patch_51">
     <path d="M 370.42 17.84 
L 384.42 17.84 
L 384.42 12.94 
L 370.42 12.94 
z
" style="fill: #55a868"/>
    </g>
    <g id="text_20">
     <text style="font-size: 7px; font-family: 'DejaVu Sans'; text-anchor: start" x="390.02" y="17.84" transform="rotate(-0 390.02 17.84)">address-table pages</text>
    </g>
    <g id="patch_52">
     <path d="M 370.42 28.34 
L 384.42 28.34 
L 384.42 23.44 
L 370.42 23.44 
z
" style="fill: #c44e52"/>
    </g>
    <g id="text_21">
     <text style="font-size: 7px; font-family: 'DejaVu Sans'; text-anchor: start" x="390.02" y="28.34" transform="rotate(-0 390.02 28.34)">headers</text>
    </g>
   </g>
  </g>
 </g>
 <defs>
  <clipPath id="p29edb1785f">
   <rect x="56.64" y="36.32" width="473.64" height="174.96"/>
  </clipPath>
 </defs>
</svg>
